<?xml version="1.0" standalone="no"?>
<!DOCTYPE svg PUBLIC "-//W3C//DTD SVG 20010904//EN"
 "http://www.w3.org/TR/2001/REC-SVG-20010904/DTD/svg10.dtd">
<svg version="1.0" xmlns="http://www.w3.org/2000/svg"
 width="400.000000pt" height="400.000000pt" viewBox="0 0 400.000000 400.000000"
 preserveAspectRatio="xMidYMid meet">
<metadata>
Created by potrace 1.11, written by Peter Selinger 2001-2013
</metadata>
<g transform="translate(0.000000,400.000000) scale(0.100000,-0.100000)"
fill="#000000" stroke="none">
<path d="M1915 3918 c-252 -29 -483 -155 -664 -363 -105 -121 -200 -326 -217
-468 -4 -28 -8 -55 -10 -59 -7 -11 -6 -188 1 -233 3 -22 11 -64 16 -93 6 -30
9 -55 7 -56 -1 -2 -39 -15 -83 -29 -254 -81 -455 -225 -645 -463 -17 -21 -120
-195 -138 -234 -48 -102 -94 -271 -108 -395 -8 -78 -8 -236 0 -290 3 -19 9
-52 12 -72 20 -135 86 -318 158 -438 204 -338 529 -562 921 -633 83 -15 376
-8 465 11 505 109 898 492 1009 987 52 230 47 433 -16 650 -24 84 -29 98 -85
218 -17 35 -28 65 -26 66 1 2 30 20 63 42 33 21 66 43 74 49 26 19 166 161
191 194 52 69 135 233 156 311 71 258 45 539 -71 758 -64 122 -195 276 -289
339 -23 15 -43 30 -46 33 -19 21 -114 72 -180 98 -169 66 -330 88 -495 70z
m280 -178 c28 -6 57 -13 65 -15 60 -13 221 -93 275 -136 108 -88 214 -220 265
-334 94 -206 89 -516 -11 -710 -70 -135 -175 -254 -294 -333 l-76 -51 -36 42
c-172 196 -329 310 -541 392 -188 72 -417 106 -583 85 -29 -4 -46 -2 -46 5 0
5 -4 24 -7 40 -50 222 -10 452 111 642 66 103 196 225 303 285 68 37 177 76
255 91 83 16 249 14 320 -3z m-645 -1235 c149 -20 367 -112 499 -212 211 -159
362 -386 426 -640 32 -130 40 -335 16 -466 -82 -463 -438 -827 -901 -922 -95
-20 -305 -26 -385 -12 -106 20 -234 60 -320 102 -84 41 -143 73 -155 85 -3 3
-30 24 -60 46 -60 45 -141 126 -189 189 -17 22 -34 45 -39 50 -27 35 -76 121
-106 185 -130 283 -136 622 -16 903 37 84 107 212 133 239 6 7 25 30 40 50 74
99 249 239 375 299 114 55 243 95 339 105 32 3 59 7 61 9 5 5 228 -2 282 -10z"/>
<path d="M2609 2989 c-34 -12 -48 -41 -54 -109 -13 -133 -69 -255 -158 -343
-39 -39 -51 -74 -36 -109 14 -35 37 -48 80 -48 27 0 43 11 89 58 107 108 177
265 187 416 5 76 4 84 -18 108 -29 32 -55 39 -90 27z"/>
<path d="M1280 2339 c-13 -24 -4 -41 54 -102 154 -161 430 -285 638 -288 84
-1 87 0 94 26 9 38 -9 51 -73 53 -32 2 -98 11 -148 22 -49 11 -93 21 -97 21
-4 0 -47 20 -95 43 -108 53 -202 121 -267 192 -53 59 -87 69 -106 33z"/>
<path d="M2243 1445 c-23 -16 -30 -40 -38 -128 -4 -52 -11 -102 -21 -147 -37
-171 -184 -375 -351 -488 -66 -45 -83 -66 -83 -105 0 -33 43 -77 75 -77 27 0
99 33 123 56 7 8 17 14 22 14 5 0 49 41 99 90 188 190 281 388 306 654 6 68
-8 121 -35 136 -27 15 -72 12 -97 -5z"/>
<path d="M3216 2334 c-142 -34 -297 -154 -368 -284 -68 -123 -89 -279 -56
-406 27 -103 31 -112 73 -180 160 -253 477 -340 751 -208 28 14 61 34 72 45
12 10 24 19 27 19 6 0 76 71 106 108 24 28 77 139 93 195 19 64 19 234 -1 300
-88 301 -397 484 -697 411z m265 -170 c282 -91 377 -445 179 -668 -158 -176
-441 -181 -600 -9 -77 83 -108 153 -117 259 -22 283 265 506 538 418z"/>
<path d="M3544 1845 c-40 -16 -50 -32 -58 -86 -6 -44 -18 -60 -85 -123 -46
-43 -8 -136 54 -136 38 0 64 16 115 69 77 80 107 206 60 256 -28 30 -50 35
-86 20z"/>
</g>
</svg>
